<svg xmlns="http://www.w3.org/2000/svg" xmlns:xlink="http://www.w3.org/1999/xlink" width="1440" zoomAndPan="magnify" viewBox="0 0 1080 112.499997" height="150" preserveAspectRatio="xMidYMid meet" version="1.0"><defs><clipPath id="6323fdfc2d"><path d="M 4.355469 7.640625 L 1077.609375 7.640625 L 1077.609375 106.527344 L 4.355469 106.527344 Z M 4.355469 7.640625 " clip-rule="nonzero"/></clipPath><clipPath id="d07a723046"><path d="M 5.078125 104.238281 C 30.761719 94.230469 64.140625 84.152344 81.6875 80.566406 C 93.558594 78.101562 102.667969 77.730469 112.226562 76.757812 C 120.515625 75.9375 125.144531 75.714844 135.597656 75.117188 C 156.878906 74.070312 201.230469 73.773438 232.21875 71.757812 C 261.039062 69.964844 296.207031 66.753906 315.398438 64.066406 C 325.628906 62.648438 331.601562 60.707031 338.84375 59.660156 C 345.042969 58.6875 349.222656 58.613281 356.167969 57.570312 C 366.917969 55.925781 385.214844 51.222656 396.785156 49.730469 C 405.375 48.609375 411.421875 49.207031 419.261719 48.085938 C 428.074219 46.890625 437.628906 43.980469 447.039062 42.484375 C 456.671875 40.917969 464.585938 40.695312 476.457031 38.976562 C 495.125 36.214844 529.398438 29.269531 547.765625 26.582031 C 559.265625 24.9375 565.238281 24.042969 575.914062 23.296875 C 589.878906 22.402344 610.335938 22.476562 624.671875 22.550781 C 635.949219 22.699219 641.773438 23.371094 654.839844 23.59375 C 679.480469 24.042969 746.980469 25.164062 761.167969 23.59375 C 764.75 23.222656 765.125 22.550781 767.886719 22.175781 C 772.144531 21.652344 778.863281 21.953125 784.464844 21.578125 C 790.136719 21.132812 796.785156 20.683594 801.785156 19.636719 C 805.820312 18.816406 809.03125 17.695312 812.316406 16.5 C 815.375 15.382812 817.839844 13.8125 820.976562 12.769531 C 824.558594 11.574219 829.039062 10.601562 832.773438 9.78125 C 836.132812 9.035156 839.046875 8.4375 842.480469 8.140625 C 846.289062 7.691406 850.246094 7.617188 854.875 7.765625 C 860.550781 7.988281 866.972656 8.511719 873.992188 9.558594 C 882.875 10.902344 894.226562 14.1875 903.859375 15.53125 C 912.894531 16.800781 919.6875 17.097656 930.214844 17.769531 C 946.046875 18.742188 966.878906 19.710938 989.578125 20.234375 C 1020.042969 20.90625 1090.230469 18.21875 1096.726562 20.460938 C 1097.472656 20.683594 1097.695312 20.90625 1097.769531 21.28125 C 1097.921875 21.578125 1097.621094 22.402344 1097.324219 22.550781 C 1096.949219 22.699219 1095.828125 22.402344 1095.753906 22.101562 C 1095.605469 21.726562 1096.203125 20.535156 1096.578125 20.460938 C 1096.949219 20.382812 1097.847656 21.132812 1097.847656 21.503906 C 1097.847656 21.878906 1097.546875 22.324219 1096.726562 22.699219 C 1090.902344 25.164062 1033.632812 22.847656 1011.453125 22.699219 C 997.191406 22.550781 988.90625 22.550781 976.433594 22.175781 C 962.023438 21.726562 943.28125 20.90625 929.917969 20.011719 C 919.835938 19.339844 912.371094 19.039062 903.261719 17.695312 C 893.703125 16.351562 882.652344 13.140625 873.839844 11.796875 C 866.898438 10.753906 860.476562 10.230469 854.875 10.003906 C 850.394531 9.855469 846.511719 9.929688 842.703125 10.304688 C 839.34375 10.675781 836.582031 11.273438 833.296875 11.945312 C 829.636719 12.769531 826.054688 13.589844 821.796875 14.859375 C 816.046875 16.578125 808.507812 20.382812 802.011719 21.878906 C 796.113281 23.222656 790.214844 23.371094 784.464844 23.820312 C 778.9375 24.191406 772.589844 23.820312 768.261719 24.34375 C 765.421875 24.714844 764.976562 25.460938 761.167969 25.835938 C 746.605469 27.402344 679.480469 26.28125 654.839844 25.835938 C 641.699219 25.609375 635.949219 24.9375 624.671875 24.789062 C 610.410156 24.714844 590.101562 24.640625 576.214844 25.535156 C 565.609375 26.207031 559.785156 27.105469 548.363281 28.746094 C 529.996094 31.433594 495.347656 38.453125 476.679688 41.21875 C 464.808594 42.933594 457.117188 43.15625 447.484375 44.726562 C 438.003906 46.21875 428.222656 49.132812 419.335938 50.328125 C 411.570312 51.445312 405.671875 50.773438 397.234375 51.894531 C 385.660156 53.386719 367.21875 58.09375 356.539062 59.808594 C 349.597656 60.855469 345.488281 60.855469 339.367188 61.824219 C 332.050781 62.945312 326 64.8125 315.621094 66.304688 C 296.359375 68.992188 261.113281 72.203125 232.292969 73.996094 C 201.304688 76.011719 156.953125 76.3125 135.820312 77.355469 C 125.367188 77.953125 120.738281 78.175781 112.523438 79 C 103.042969 79.894531 94.007812 80.34375 82.210938 82.730469 C 64.738281 86.242188 31.660156 96.246094 18.59375 100.875 C 12.617188 103.042969 7.839844 106.476562 5.824219 106.328125 C 5.152344 106.328125 4.628906 105.953125 4.480469 105.65625 C 4.40625 105.28125 5.078125 104.238281 5.078125 104.238281 " clip-rule="nonzero"/></clipPath></defs><g clip-path="url(#6323fdfc2d)"><g clip-path="url(#d07a723046)"><path fill="#be95c4" d="M 1.492188 4.777344 L 1100.714844 4.777344 L 1100.714844 109.390625 L 1.492188 109.390625 Z M 1.492188 4.777344 " fill-opacity="1" fill-rule="nonzero"/></g></g></svg>